<?xml version="1.0" encoding="UTF-8"?><svg id="Layer_1" xmlns="http://www.w3.org/2000/svg" viewBox="0 0 927.37 241.21"><defs><style>.cls-1{fill:#ffffff;}</style></defs><path class="cls-1" d="M148.32,117.55c0,21.89-6.88,39.94-20.63,54.14-13.75,14.2-31.66,21.3-53.71,21.3s-39.79-7.12-53.47-21.36C6.84,157.39,0,139.36,0,117.55v-31.98C0,63.84,6.81,45.84,20.45,31.56c13.63-14.28,31.39-21.42,53.28-21.42s40,7.14,53.83,21.42c13.83,14.28,20.75,32.29,20.75,54.02v31.98Zm-35.52-32.23c0-13.83-3.46-25.19-10.38-34.06-6.92-8.87-16.48-13.31-28.69-13.31s-21.42,4.44-28.14,13.31c-6.71,8.87-10.07,20.22-10.07,34.06v32.23c0,14.08,3.38,25.55,10.13,34.42,6.75,8.87,16.19,13.31,28.32,13.31s21.73-4.43,28.56-13.31c6.84-8.87,10.25-20.34,10.25-34.42v-32.23Z"/><path class="cls-1" d="M292.97,128.05c0,19.53-4.52,35.24-13.55,47.12-9.03,11.88-21.65,17.82-37.84,17.82-6.92,0-13.06-1.28-18.43-3.84s-9.97-6.33-13.79-11.29v63.35h-35.52V58.35h32.1l2.08,15.62c3.91-5.78,8.61-10.23,14.1-13.37,5.49-3.13,11.9-4.7,19.23-4.7,16.36,0,29.05,6.39,38.09,19.17,9.03,12.78,13.55,29.58,13.55,50.42v2.56Zm-35.64-2.56c0-12.45-2.08-22.54-6.23-30.27-4.15-7.73-10.5-11.6-19.04-11.6-5.37,0-9.95,1.1-13.73,3.3-3.78,2.2-6.77,5.33-8.97,9.4v57.86c2.2,3.74,5.19,6.59,8.97,8.54,3.79,1.95,8.44,2.93,13.98,2.93,8.62,0,14.95-3.38,18.98-10.13,4.03-6.75,6.04-15.91,6.04-27.47v-2.56Z"/><path class="cls-1" d="M372.19,192.99c-19.7,0-35.08-6.04-46.14-18.13-11.07-12.08-16.6-27.65-16.6-46.69v-4.88c0-19.78,5.37-35.97,16.11-48.58,10.74-12.61,25.51-18.88,44.31-18.8,17.74,0,31.35,5.43,40.83,16.3s14.22,25.49,14.22,43.88v18.43h-78.74l-.37,.73c.57,9.03,3.32,16.36,8.24,21.97s12.23,8.42,21.91,8.42c7.97,0,14.75-.81,20.32-2.44,5.57-1.63,11.33-4.11,17.27-7.45l9.64,21.97c-5.29,4.31-12.45,7.93-21.48,10.86s-18.88,4.39-29.54,4.39Zm-2.32-109.62c-7.16,0-12.68,2.46-16.54,7.39-3.87,4.92-6.21,11.46-7.02,19.59l.24,.61h43.46v-2.69c0-7.73-1.59-13.81-4.76-18.25-3.17-4.43-8.3-6.65-15.38-6.65Z"/><path class="cls-1" d="M478.27,58.35l1.59,18.92c4.39-6.75,9.81-12,16.24-15.75,6.43-3.74,13.63-5.62,21.61-5.62,13.35,0,23.76,4.29,31.25,12.88,7.49,8.59,11.23,22.16,11.23,40.71v80.93h-35.77V109.62c0-9.44-1.65-16.13-4.94-20.08-3.29-3.95-8.24-5.92-14.83-5.92-5.29,0-9.95,1-13.98,2.99-4.03,2-7.34,4.74-9.95,8.24v95.58h-35.65V58.35h33.2Z"/><path class="cls-1" d="M625.12,125.98v64.45h-35.64V12.7h67.99c20.43,0,36.5,5.21,48.22,15.62,11.72,10.42,17.58,24.13,17.58,41.14s-5.86,30.68-17.58,41.02c-11.72,10.34-27.79,15.5-48.22,15.5h-32.35Zm0-27.47h32.35c9.93,0,17.46-2.7,22.58-8.12,5.13-5.41,7.69-12.31,7.69-20.69s-2.54-15.6-7.63-21.18c-5.09-5.57-12.63-8.36-22.64-8.36h-32.35v58.35Z"/><path class="cls-1" d="M783.57,26.73h-35.64V0h35.64V26.73Zm0,163.7h-35.64V58.35h35.64V190.43Z"/><path class="cls-1" d="M845.46,58.35l1.59,18.92c4.39-6.75,9.81-12,16.24-15.75,6.43-3.74,13.63-5.62,21.61-5.62,13.35,0,23.76,4.29,31.25,12.88,7.49,8.59,11.23,22.16,11.23,40.71v80.93h-35.77V109.62c0-9.44-1.65-16.13-4.94-20.08-3.29-3.95-8.24-5.92-14.83-5.92-5.29,0-9.95,1-13.98,2.99-4.03,2-7.34,4.74-9.95,8.24v95.58h-35.64V58.35h33.2Z"/></svg>